<svg width="115" height="34" viewBox="0 0 115 34" fill="none" xmlns="http://www.w3.org/2000/svg">
  <!-- Book icon in circle with similar positioning -->
  <g transform="translate(0, 0)">
    <circle cx="17" cy="17" r="17" fill="url(#gradient)" />
    <!-- Scaled and centered book icon -->
    <path d="M11 10C11 9.44772 11.4477 9 12 9H22C22.5523 9 23 9.44772 23 10V24C23 24.5523 22.5523 25 22 25H12C11.4477 25 11 24.5523 11 24V10Z" fill="white" />
    <path d="M13 11H21V23H13V11Z" fill="#0260FF" />
    <path d="M15 13H19V15H15V13Z" fill="white" />
    <path d="M15 17H19V19H15V17Z" fill="white" />
    <path d="M15 21H19V23H15V21Z" fill="white" />
  </g>
  
  <!-- Text section - positioned to match reference -->
  <text x="40" y="22" font-family="Arial, sans-serif" font-size="16" font-weight="bold" fill="#0E0E0E">LMS Platform</text>
  
  <!-- Gradient Definition -->
  <defs>
    <linearGradient id="gradient" x1="0" y1="0" x2="34" y2="34" gradientUnits="userSpaceOnUse">
      <stop stop-color="#0260FF" />
      <stop offset="1" stop-color="#00C6FF" />
    </linearGradient>
  </defs>
</svg>